<svg width="24" height="24" viewBox="0 0 24 24" fill="none" xmlns="http://www.w3.org/2000/svg">
<path d="M21.4948 10.9164L16.5187 9.96644L18.1407 5.2705C18.4294 4.45354 18.225 3.62709 17.4919 3.21227C16.7588 2.79746 15.9218 3.04762 15.3509 3.68092L12 7.4079L8.65231 3.68092C8.06517 3.03812 7.23149 2.79113 6.51459 3.19961C5.7977 3.60809 5.57063 4.46621 5.86582 5.25784L7.48776 9.96644L2.50516 10.9164C1.64878 11.0715 1 11.6795 1 12.4996C1 13.3198 1.64878 13.9151 2.49867 14.0829L7.48776 15.0329L5.86582 19.7414C5.57711 20.5584 5.78148 21.3849 6.51459 21.7997C7.24771 22.2145 8.09112 21.9517 8.66529 21.3184L12 17.5914L15.3477 21.3184C15.9348 21.9517 16.7685 22.2082 17.5016 21.7997C18.2347 21.3912 18.4423 20.5489 18.1504 19.7414L16.5187 15.0329L21.5013 14.0829C22.348 13.9151 23.0032 13.3293 23 12.4996C22.9967 11.67 22.3674 11.0715 21.4948 10.9164Z" fill="#5B37D4"/>
</svg>
